<mxfile host="app.diagrams.net" agent="Mozilla/5.0 (Windows NT 10.0; Win64; x64) AppleWebKit/537.36 (KHTML, like Gecko) Chrome/129.0.0.0 Safari/537.36" version="24.7.17">
  <diagram name="Trang-1" id="7H73FpHsSYTPdwvyodjZ">
    <mxGraphModel dx="1793" dy="2134" grid="1" gridSize="10" guides="1" tooltips="1" connect="1" arrows="1" fold="1" page="1" pageScale="1" pageWidth="827" pageHeight="1169" math="0" shadow="0">
      <root>
        <mxCell id="0" />
        <mxCell id="1" parent="0" />
        <mxCell id="Sn0ZS7JDet4PQSGlTSbJ-2" value="" style="shape=image;verticalLabelPosition=bottom;labelBackgroundColor=default;verticalAlign=top;aspect=fixed;imageAspect=0;image=data:image/png,iVBORw0KGgoAAAANSUhEUgAAATAAAACmCAMAAABqbSMrAAABIFBMVEX///8uQnc3uug4ToUaKU0vQ3k5T4cltucZKEwzSH4etefD6Pf2/P4fN3Hd8vs3TIMoPXFfxewOLWwoPW7m9/1Dvem65PZtyu14jvug2/Jtuf+eprxsgulnebwgMFkdLVMsRYByhdBgca/Q7fmP1fFrfcYuQXFcbrFpercjNGDAzv90hstnrPGZ2fJEZ6Ffxuzu8PTEydgiPn2yuc2uvfVDWI5/0O/o6vBfb5rW2uVyf6Vyg7ljdauYp96Cksm8yv9Wi8piouWEjaqRm7hLXo/HzNpgcJo7T45jedmisulTaLttgNFKXZsAAD12iucAHk+2uMFZZohNerZbldaHnP1LYKxMXIgGI1YADT5rdZNGa6aGmfNEWJ8FHESAiJ9yh+cQtF41AAASAUlEQVR4nO1de3/aRhZFCEkWCCTeIU7ALdQpXmNibJG4ceI8nLRJ3e5ukmbb7nb3+3+Lnced0cxoJASx4wA6fyQ/GyGk43uvzr1nJAqFHDly5MiRI0eOHDly5MixdXh4dnz8+tFtH8XaYPfx3gzj8tXD2z6UdcCJv+f7Joa/N9v1bvtwvnacPZ5RtoCy8OS2j+irxsOXIl2Estnl2W0f1deL3b09MwZ/72VeyrQ4vpzF6SKM7e3e9rF9hXj0g5qNAvbC49s+vq8MD1/N3ES6SCl7k5cyASemUrxcy3DlgHPzUsZxdqlko2sQWNJv/T0zlxgYseIFdGG4pi3lZfj6to/29qFKCd8yRMiVzZ/9sOUd5rGtFi9DhRx+e7NtbjAfvZGz0Y7ThUuZTOn2dkuoD5ISzvZ1dOnycju7JVVKKMUrnbLtK2WvZSlha4qXnJdqKduubilNSmQMsm3qljy1D0rNxuS8fLwlpewk3FsqGxMpc2fb0C2dvVk+GyOoEmPzBz9KNuqVV3qQ2RJll5t9vdyVZ4QZi5dCmcSYG260T6I0QivQFWNsttHCXwmw1Qgz5Dq20WVMmdovXcEw1MK/0YQ1VBdtecp8W95FdbMJM9TR/ZJ1P/72TSdMHXAtpSwUuojm3XzC1EY6cynTv2+jCfMaEClqIcpAmaWGF1xjN5qwQiOxFi3ORoVjVvs2mjAcYRaE01J5qUgJYlwaRpCFMK9N0PoyZ6jBkHx+faWGBBPmMnIUEtKmFvoM/vFBkIGwVrmI4NRWOd5rQYUewGcRBmIiMc3UbFTSl27WvPfNehDmfC5hvuuykp2hlMXWXEBGbxFh4cEzNzrx9FKWIEGaP30XbA1hvn1xEfpYWbiaCJJKmSolaAQGAYqu7SCsYAWIIPfJxWX49tyPSpm2RmmykbwQvLsfCIQ1Fpgh603YMclJ13YvD05RLWMZFtOkVnLxMoJ7fyOEBT+HOMDeLPjI9SascFyldct9ehCGz2yWgbFSFQdRXsZ/rjhhWIZZwR+LPnHNCSv8MjYsIsHO/fODpy5PtJjE0MScQWoXIezXb3E6WsHf/7HoA9ecsJPfS4OmRcSFaZ8eXPpR0UpbswlhaDTvUMIMl6j8cemvfy5y2tabsJPZeKdU6geUMpSTlDAmMRKCDKTEPVTsMWF37pPospqlUmnHulzwketNmO/7fcRYaUwlGF3H6h+5fkopI/GHpcQdenU0rvAvrCbe0c6+vcgEWW/CZqhS4cAolZqolEESWocvQpeXMh1dSEo8CAhhd6DYG30cXn3XXjjTX3fCcAHHabnTp6WMEHb37nPULkG3JNuOVEo071DCqJQwrDGma7CPN91swhr4WmjbLkmnvkEpw4TdPXyPtL/ULdnMIkFSghFGo6s5IDFKr6uLFj6tOWEs5/YHrJShunX0AjF298VRJGQJmOC/831ACPsIUoJk4xgi0V2lNaoQdIbsZ68y6rbL5XJxOqroTszrzOsOebnj8bfLm9R6c7yHdneC99rq4P3Tz9QS1urNp8Vy2anPO6mTOjxAJNdCKGWDJqbHt97jILv7wfbV5huxZgFhhg9SggSnbUPGrkDYpOxglNuwxbxIzonAaU9UyrxR9LpTnLc88vayuMfh1Ik2afcKPbxJuZ5EWK0rbF7spkQ/GVHTiT7NS5AYvvkcM3bkKwOe4N63ASWMRJdBshEVL+GCsDxhIzhYOoX1RuWiBKc4lHYwFOgkr4+KsT3Ku0BxQ/6f6gnz5sonlkdJ+cpNEFKjbAPyElPm2h80hFmYKERY8ID81MRv2BnT4gXif2nCJhJflbZMB9lYTLde/HWVsGnCJvoIa8U/0WknMOZxEwQK+34JMTAYWyjxfPfoMJEwSUpI18+lCePxRY+xrSUjqiuVsm4DaY/dBL70hGn4KrK/npYwyxc0qm1iiQHdko9TVUPYz3SVD0gJma6lCWPxxUyJDv3ZKbbr3Sk7F2fK3x0RhKEjbOIkbaIjzGN/Iac9n0xGdbZ9O5Ewl/eOUMrGUSkztYRJUkJQs3tXyxOm8lUozB1MV4++PoTsclgZq7PT63aGw2FlFIUH22ONkVwcVdAmHSHedITN4QPakPY12N6ZJxJmm/JE344khhFLyY9UqAZEuI2h2WRj6uUnrr0yRJBQghEHvWhzyNhuQThZdOo8/yo8QuBXXfhxxHc4SiGsEqeno/yNYoThM+bzB1soZU0r7hrhzSyQEi6XEuSFFUbUUMCjjMMYzqX6AYRIbIjbe3WJsBr8CTriHp1EwtqacALGpIOSCAtPnyjmJO2WSqRbisEaYylRYlIComuVmT6Lr27a9vTwKR3ARlG+hrVFwkZKfImMxQkbloUXOOZSyMYIYyaIaE5K3ZLEFhQvKiVsPrlYxQRh8ZXKV6HlRAkC5HXkLSoCpSwgFVnQTSCsq80+j27RK8RRJSP9Zwfn4dPQZ2PneCkT+OJTCW4oBb/JJkjW8Q6LL211jRFGanJdy4aY5HAVHSk7oX+bGGFwiVQCjPGoy8kTZoIcHZyiNggWhzGJwbslGmaWZQhTCY0JcoQIq35KP384vWKrk3Y1IvCGlQmSFlFN8igb6jtEwjoCvYsJgytqLJR6yf35SZXWLf/tQWg/wQ/ZEYOMlrLBOKDJOCbZKPZBxo92ZIJgvRE8zjaiLs7T+Rr2ukVRRBHCaPjEUkUkjJawsp6BGGHwR6tPFcAfSStef6Ea1URsgQkiTPShlJFrJvk3JiVkE8Qw/pXRBGHQhX3Bm7RlxQmEDfXhIxJG63UxI2ET+UMUaIXF69+ZRnX98PQi9AWhYAuDHwrcBwlSwohMkJD+OPgro80mEaGeXTF+HiJh6nmIhNHqE5PpCYSNYp8jfab6l0E4nvWjMZh7/pRyJE30bR+12BT9fVmoggmCCSMmCI7CjEZudFTqxdvTts4iYeo7viRhSE4MiEYl5qQPfXToyt2S6e43m819XyhegWGwmX5w342un017lmmpQARlMOCJ3TdOTKHoX3uETVIJK2sIm6HzVyb6KIAOP9h8og/jaQRTlBLvrgzRBGGtuJHVBCHHTP+Ty1iXv9rujjo1j8mKjDVsOcJACbb1KGqU64xPDndwKbOYCXL43tebk6oJ8mtoKK14VsKcXgeEmCiaWLPojIYQeQJhNa1u1RR9JyNhXAh7OuiOviFpVIvWLWKCvPjTipuTsDQzlEwQbEnS66e5BGFYHEBjLTIAAVaPrugCYQmqNN6dltXYSCCsJXX2WdAwVI2KS9mfdKLPzUnDdX3fd9mlUTFBlFY8W2tExSIbzvDzA2kq1jWBsAKwmULYUN/VJBCW0EilEgZPbWIaFSaHZKJ/97kZW4HYDCITRLAkhVY8I2E1gZ/oiEGailVKJAw6a6Xqt4SLp6fndFTUEwY7nCxDmKxRd8Y0oswPWUwQKiVYK76CCQLTAl744dxFiS0SVtEOXqThwjROuUKjSBgbBmV2SWGmTwu7TcZgUMpcbE5qZ/qYsOA7IiUCYarP1nYuN3FlEwvokDQR5gmEgeaQM47tQnQdZc7ZyEwzD2MXZaULSvImuQnC220hL6336SYIkhI78VZ82Zn+XCr8mvFBV7w0Qi/jxEeybI9MxwkuRo3NtTWEsYF2UaoC07KuK2KEudEYDJ22MNH37VAbYf8OhWyU5ogrEMbqLhQm6AW7zKLowPkwQrkrQlSHV5vwNortscOFCRJxBa9ViYb6upk+ayedeoVS7A2xq6vtI1UThEoMIxqDJZsgiiVJL6aWvQph3AeiI1B2dvNOp4MnFjJhnA5sKyFpKXRRfI/16Hdkk3QTBIoe3eO022Vv0DPGTBBJcFFVNoClnKoJcqWTEvQCuoIJEp0AK+WR0pcGFlyrzZMGDHyPrYQNkozcuvgxmv3FCEPx4Ztyuy1IDGVEHQp9kFi8gs+4dWYiFn5P66sK4raewFi0x9pyhCUZv4mukR+enrumZqJPS5kKZXUTfVvz3efc2ABRVSakqE50rBtQY8yRTBDKmH6TpMUovbibXu5qL5Ts1plTW12jr53oE77AkhQXCCxvgjgSYezKRscDnsiI0+6QzBTbp05bSqKRKFxhhyORMac9TFL67JjmMsVOPeEqCSbI04Pz8FnI8pKqMhupshKoMhE0G11RSvznW9EEqS4wQbwugdSN1OjvpsBKbV6kC6CKc0QhfUkiuDOlrzvl9qilXXHWGrVhE2fa8aTWqDYle5SPqtVju3TK9VGyjn3VIO72kX9+8BavPF9gTtIZYQmKF1wPmswEIWPqwL2WJzzVKp1OJW1p2xBvQCcaCWsaPbRFpwIOu0BY6meyNyTiVdUia/TNtxehee7qJvo7/SZlJiAmiLy6yRVMkAAH2Kcv/7Ci2uJFoJQwrYGwLH4hGtX2w2fmuXgboLSUszQY9PuDUmRJirf9UcLuZzVBrh+g1tPikejhBY5xNpz9vsPX6IcXKMo4GZI5yUwQWUoE3AQJ8MIdLP7/+u81HNSSACGXNqOh6nSBZZwFZ3v9SKO6529DmBSK0h91SyTKdvAQR5ISDyIThC2w26m+/PyjWhI03/QLuijoZVjr/S+JS98lgQO3G9Fq79uuVMpMf3+M0GT3a/ExNZgg3wgL7MYLTZDrR31h+NRSup3lMEOnL6wFBm2F1+jLpYx5IJGUUEyQqBW/6ac7eVNlRD2MTfqHbYUaUMbX8OmzqLBDKTOpCaKb6JvR408iE+QKpvp8gd1NE1Z35LVMoHrLUQnDDEqMgddxHTWfmiCosLMFdJbJTJDQVW8DtG3mVkYmCLkviy/pyXLrzOfBm5JTj9hpwXAiYmNI+BPqFYyIriMjCw1RozJz0n8PE32XLeXEc3/fh0Y8uAcmCFurL7fiN/soGTa7mVAR0WJWbKTCYEDk1Ok9JHi8RTdZIFuzocELO5Qyyo9NTJDD96buWR/cBCFSItaK3yhh3AV2nDZqb9psAiRkKe+knSLqgep8HnY9dzc1hJwTbzdywxd6E+QnwQQJBEsyun7ebITFBhEUooafcCdb6qc1q15WAJ3pxxbQoTLlYnMy+U6Qn30SXjSTpTniDT/dSTcvU27c6BTjlJWzO2mpn85MECYoxIk+KmXpJghbHSy14jf/OKzYoq5ybEniNHa7kmZdyUrAd4K48XabSH/XDfUmyMfLaKpfkm80+hKESfeeoRKlm12JIzMH6ZDrevgWjKjlySGYkxbNVE2EmUk3Gn2xR/q1eqjel8uo8k8nCVwM5/ViGW1SrHe1t1yuBp0JgiRGiU/0E0wQ3VQ/qwlyXYfutWot/QobYZMFWyz/qRBhvi3fbtTnk0PVBMHSi1mSTTkbM46o1xow03965Jtm0u1GMsjjYgaxG42C3x5knemvNbgJIjyoiN1uRM3JmG7VWZJLmSDrjQYzQewnPnuwstotSZxRKSEXrx+vgq0h7GUVP6vcPjeT1+gjVcYp06xuiu4Eaf7ve2yCWJv9NRc/NAJ4UNFF6IcJ5iSKMgyjGb/RCEkJboLgpwxUq5v+TSrHYZU4bZdP7fMD4TZAWGcBE/3+eDzux6f6qgkSVLfga1S83UaVrNH3Ly9OBRNEWsrJId5oJJogD9B7gsanTQ8viocvSV7a7hMgLFbKKGc77C5JtlZfNkGq5vZ8FdTZp0Zg4duNaCIqT8Oy3f1xf9Af78sPXOAmCH32YWO7vmX+xK3yh1e4L7gJItwIwm0QdtufaIIEje37OrtX1SpIMOsQP6jIp3mZ8KBbmOnDbX/VT9v43a+P/qCljJogz7k5GUb3zoTEgbTcyATBk4uqtdHfzJOCs090+RO9rYHfbuSGZkjYgpsiuQmyPVIiESdBNZroH/7pC08JhuY7uhMEpMSWf0P6Q1zKYKKvmek3310F3DXaMimRhEdvcCnziTmZYoLgJebVzW60M+M1KWX4AWKpJkhQ/WGLi5eM3SopZUehbqZvfTwiD/TYkj4oG7yXNC+1JgiZSrjbKiWScPaYqDIdYfjauM3fH5+EY5OUMokw4z7pg95sXR+UDbiUKSBSYhv7oGx4iAeyMnIpkQ7SLQkB1tjmPigbTtxqwOnalu8+/yx4u2YVoxF8yvugjHj0enf35CxPxhw5cuTIkSNHjhw5cuTIkSNHjhw5cuTIkSNHjhw5cuTIkSNHjhvA/wGtt/P8EiTFvQAAAABJRU5ErkJggg==;" parent="1" vertex="1">
          <mxGeometry x="20" y="120" width="146.5" height="80" as="geometry" />
        </mxCell>
        <mxCell id="Sn0ZS7JDet4PQSGlTSbJ-3" value="" style="shape=image;verticalLabelPosition=bottom;labelBackgroundColor=default;verticalAlign=top;aspect=fixed;imageAspect=0;image=https://upload.wikimedia.org/wikipedia/commons/thumb/d/de/AirflowLogo.png/800px-AirflowLogo.png;" parent="1" vertex="1">
          <mxGeometry x="300" y="120" width="207.12" height="80" as="geometry" />
        </mxCell>
        <mxCell id="Sn0ZS7JDet4PQSGlTSbJ-5" value="" style="shape=image;imageAspect=0;aspect=fixed;verticalLabelPosition=bottom;verticalAlign=top;image=data:image/jpeg,/9j/4AAQSkZJRgABAQAAAQABAAD/2wCEAAkGBxMSEhUREBMVFhUXFxUYFhgYGBcVFRcYHRkdGSEYGBgYHiggGBolHRsYITEhJSkrLi4uGh8zODMtNygtLisBCgoKDg0OGxAQGy0mHyItLzUrKy8uLy0tLSstKy0uLS8vLS4vLS0tLS0tNS0tLS0tLS0vLS01LS0tLS0tLS0tLf/AABEIAJcBQAMBIgACEQEDEQH/xAAcAAEAAgIDAQAAAAAAAAAAAAAABQYEBwECAwj/xABKEAACAQMCAwMHBgwEBAcBAAABAgMABBEFEgYhMQcTQRQiUWFxgZEVMlWTobEjQlRicoKSosHR0uIIM1KyFhdDYyVTZHPC4fAk/8QAGwEBAAIDAQEAAAAAAAAAAAAAAAMEAQIFBgf/xAAtEQACAgIABQMDBAIDAAAAAAAAAQIDBBEFEiExURQiQRNhcTKBweEG8COx0f/aAAwDAQACEQMRAD8A3jSlKAUpSgFKUoBSlKAUpSgFKUoBSlKAUpSgFKUoBSlKAUpSgFKUoBSlKAUpSgFKUoBSlKAUpSgFKUoBSlKAUpSgFKUoBSlKAUrjNYo1GLf3QkUv/pBy3wHSgMulYWpavBbjdcTRxD0yOqfDcedRVpxzp0rbEvYC3gC4XPs3YzTYLFSuoauc0BzSlKAUpSgFKUoBSlKAUpSgFKUoBSlKAUpSgFKUoBSlKAUpSgFKUoBSlKAUpSgFKUoBSuM0zQHNK8bq6SNGklZURRlmYhVA9JJ5CqhL2iwuSthb3N6QSN0MeIQR6ZXwvvGaAuZYCtdz6i89zJZaVJGjE77y8819m7O2GEdHfHuXn4k1gQajPrIZ7pDbafEWDRrJua6dTz3SLjMK457eR8Cccsrh0s0jiKzt7eFSAuEHeMMZycABTgj08+XhXJzuJwoTUerX3N4w2SVtwTZwEOyG4mPzprgmeRj6ctyX3AVnXWlQSLskhidT4FFI+7lWXk+NY9lMzruZduSdq9SBnqT6T19XSvD5WffkWO1Sa/ctRiktEAon0o77YPPZfj22S0kP50DNzI/7ZPsq8aPq8N1EJraRZEPivgfQR1U+o4NRxwa1/wAS65Bp19HPbErKxVbiFUZVuIyRnHLa0y5BGOfh44r0nBOMWXNUWrb8/wDpDZWl1Rt/NAa1hdXl1qM5ZJbizjRT3MaMFkJxnvbgDIwThRGeeMnlzzLcM9olq1unl9zDFcruSZGYKd6MVLAeAbG7316OvIrsk4xfVELTReqVWv8Aj7TPy63+sWs/SOJLS6Yra3EUrKMsEYMQOmTipzBLUpSgFKUoBSlKAUpSgFKVj319HCjSzOsca43OxCqMnHMnkOZFAZFKrx45038vtfrk/nT/AI5038vtfrk/nQFhpXnDMrqGQhlYAqQcgg8wQfEEV3oDmlKUApSlAKVxSgOaUpQClcUoDmlKUBXNb4k8neTehEUKK7vjczbjtSONR1Zm5c/QfSDVa0Tj2Tyu6W/McMcNv33dp5xjA2kiR/xnw6ABeWSR1HO1cXaL5TbSrHym8ySI8v8AMibegOeWN3L2E1qjTdO8rv0gnMgDSvczxPC0R2IFxHI7f5iB1iXC+byJ5nGILLHB7fbRlLZcNP0l9TK32qgiD51tZE+Yq/iyTgf5khHPB5AH3Vn6tKbuX5Ntj3UKIrXbp5pWNs7YI8fNZwCSfBc+JFTU0u4+qq3wjcBDdwS4Fx5RJLJn8eJv8uQH/QEAT1FSDXnI8YdsrJLtBdF5Jvp60S9zbIIxBEoWMBUVRyAUeA91dxGEVio8CfgK7QSBgHHQ8wfSPSPbXrjPKvJW3Tss9/y+pOlpGHpF13sEUuc70VifWQP41Dca6TPcxCKGZolJO4JyZzjkC2eSZ5n016cDMfJFQ/8ATaSP3JIyj7BVgqSdjxcpuHw3oxrmj1IvhnTpLe2jhml71kGC2Me7rk46ZqD1/SZZ5BK+z8C8DIO7BbeZUOFc8xhQMnoScY5VcK6sgPX0g+8Upz512u35YcNrR2CjwHU//jXzRx9Z/wDis8aD58i4HpLAfxNfSsj4BJrQMGLvXiy81WUt6sRDr8VHxr0P+KKU75v41/JBlS5YbNjw8M2igL5NCcBRkxrk4GMk451kdi+npv1C6jRUR7juowoCqFjH4oHgS32VmSAkEA4ODg+g+nFU/TOFb63TurfVJY0yTtVMDJ6n53WvouRQ5JKCODiZKTbskb0pmtLfJGqfTE/7P91R2uWmswQtLFqk0uwFmXmjbQOZHM5I9FU3jWJb0X45dTekzfVK0NwsNSurZLiTVLlC5bCjn5oOM5J9INS/yTf/AExdfAfzpHGsa2kJZdUXps3FStO/JOofS918B/OnyTqH0vdfAfzrPpbfBr62nybipWiuItf1jTYWdLwXEbYXdJGvexE+IPiDjxz16eNYPD1nrF0gnuNSuIVfmqh23EenaCAo9FafQnzcuiT1FfLz76H0HWr/APEHqXd6asI6zTIp/RXLn7QtQv8Aw7e/TF7+039dYGq8By3W0XWo3E23O3vMvtz1xubl0Hwrf0tngj9bT5K72SaJFN38s8SSKNiqHUMATkkjI69PjVh440K37uCCGCJJLi4iiVlRVYZPMggeyp/hbh9LGEwoxfLlixGDkgDGB7KqvaA9xLfWsFkSJY1MgYHGwk43E+GAvWrUq+SnWupUhc7MjaftR9AwxBVCqMBQAB6AOVetaQi0fViBv1iYHxABIHvLD7q9PkfVPpmf9n+6qvpbPBc9ZT5N1UzWlfkfVPpmf9n+6uslprMI72DVHldeYjkUbX9XMkZPT+IrDxrF8BZlLetm7KV84afxVrmqTN3dwYEXG7YO7RPVyBZm9WT7qsg0fVPpmf8AZP8AVWIUTktpG9mRXB6kzddK0r8j6p9Mz/s/3U+R9U+mZ/2T/VW3pbPBp6ynybqpXz7xMms2sJnTU5pVX54yVYDPXGTkc6ytFtdVngjmOrToZFDbcE4B6c93orX6E98ujd5NfLzb6G+KVpX5H1T6Zn/ZP9VPkfVPpmf9n+6tvS2eDT1lPk3VStK/JGqDprE/vU/1VN9nnF155Y2l6mVkk2F4ZlAG9R1BwBnlk5wD5pzWk6ZwW5Ikrvrseos2dVM1F8a0ufxtPkCn1idSfZyI+FWvUb5IInmlO2ONWdz1wqjJOB1rVNxezyzx65KpjhQrHFD+OLV8hpXA5bjuD48Agrm58oqiUW9N9F+SxDubAFVLiyxR7uyBYoZHkRyDt3xBNxiJ8dxCjHXrVtFYmqadFcRmKZdynB64IYdGVhzVgehFfN8O/wChduX3T/cuSW0ZY9VQl5xTAjGOPfPIvVYVMmD6Gf5q+81jvww7jZLeXMkX+hmUZHoZkVWYeonnUtZaZFEoSNQAOQAAAHsA5VLy41T5m+d/bov3Me5kVwhE0Nt+G5NzeTxwzMzsOXXBap1JRIm6JlII81hhgD6eXKkxCocDHI1rPTPKW1KV7RwrurGBGP4G57khJY3A+a5PnK49BzyNWsTEfEbJyXR9/t+DWUuREunaTbx3UllMsu9JDGrqO93kHHzV5hs+ABqWTjzTiM+Vx+wnB94PSqhacDzS3LTRWU8E7uzNLPIhhhL53MgRiZmGTt6DpnFbe0zQIIIYoVjQiJFRSyqW5DGScdT1r0T/AMexrOrTT11/JF9Vo1Hx92h4tyLJXKudnf7SIwcZwrEec2AenT01VuxqzzNPOfxUCj2sc/cv21YP8SGo/hbS1HRUeQgfnEIv+xvjXbsms9ljv8ZJGb3DzR9ob416HhGBVjNQrX9lDPtf0nsnOJ9Ya1iV0TvJHkSJEzjLNnln3Vg6xf6tawvcXGnRrGgy7d+hwM46AknmR0rIuofKNW0626hGe5cfoDzf3h9tSX+ILUu700Qg85pUX9VfPP2ha6ORkTVjUWVsXFrdSckVfgvjk30xhaEIQpYEMWHIgYII9fWrJxDdd1azyH8WJ/iRgD4mte9jFl5085HQKg953H7h8at/HUbSwJaocNcTRx59CjLsfcFqxXOTp2+5VurhHIUYroUDSe0iaCGOBIIyEUKD52TjxODjJ61mf807j8mj/f8A51sfR9GgtUEcEaqPE485j6WPiayGuogcF4wfQWXPwzWFVYl1lo2lfVKT1DZrD/mncfk0f7/86ufBPEjX0bu8WxkYA4yVbIJ5Z6EY6esempvyyL/zIv20/nXspBGRgjwI5ipK4ST6y2Q3WQcdKGiB4yXvI4bcjPfXESkfmg72+xanpHCgseQAJPqAH3VBXf4TUYU8IYZJT+k5EYz7gxrtxxe9zYzt0JTYPa5C/cTWd65pmOVvkrMPT9U1O8Tv7CwV4CzBHeRVZtp2k4LDHMEe6qtcdptykjRNbxb1YoQCx84HB5g8+dbp0GMado8Zbl3Fr3jfpbDIf3ia+ZuFLU3F9Crc90oZvXg7j9gNc6ORZKWt9zrPFpjHfL2N/wAJJUFuRwMgdAccwPVmoHh5RJdXtx/3FgU/mxqAceosfsqduZwiNI3RVZj7hn+FQ/BcBWziLfOk3St7XYt9xFdN9ZJHGj0hJ+eh6cQ60bcxRxRGaeZtsUYO3cR1JJ6AZFR19qWrwxvNLpYVEUs7d8hwoGScBsnlWdoUPlHEEfitrbM59Ad/N+OHB91WPtq1LuNJnx1lKRD9Y5P7oaqF+RNTaizqY2JW605LbZrnhbtEN1cpbvAE35wysTggE8wR05Ve5pQis56KCx9gGa0/2Q2W+8aXHKONj+s3mj7C1bI4zmK2cqr86QLEvpzIwX7ifhVmicnU3Ip5NUFcoxR04HttlnGcANJulb2uSRn9XbXXU9cn8oNnYWpuZlQSSDcEVFOMZJ8eY+I61O28IRVjXooVR7AMVh9jsXe3GpX3UPMIUP5qDPL3FPhWL7HVWlE2xq1dbJy7Fb13iPU7KPvrvTVjj3BdxlU+cckDCknwNZHBHGJvzIrRCMoAeR3Ag8vHoa9P8SOpYjtbUH5zPKw/RAUf7m+FQnY5ZbYJpv8AW4UexRn72+yoMe6yU0myzlY9UKm0iz8aS4spQOZkCxKPW7Bf4mpe2gEaLGOiqqj3DH8KhOIvwlxZQemUzN7IlyP3iKlNWu+5glmP4kbt7wDj7cVd37pS8HN5fZGPkrlnxDqFy0psdP7+KOV494kAyV9RI54IPL01B6j2lXFvK0E9mqSIcOveHIPoyARW1ex2x7jSYGbkZN8zH9JiQf2AtfOGpTte38jjmZ52I/XfkPcCK5vqLG+52fSUpdYm/rK5EkaSgEB0VgD1GQDg1F8MR99xAWHS2tef6T45fBz8KmIowoCjoAAPYOQ+ysXsXi719Qvj/wBW47tD+ZGMj/ePhVrMl7Eijw+G7JSRsfULJZopIZBlJEZGH5rAg/fWq/lJ9Ni+T9TU90AY4bnaTDLF4K+PmuBywf8A7O3aw9Ut2khkSMgOyOFJGQGIOCfYcGuHlYteRHlmu3Y7MW0Ubs9vu+tMhi0aSSRwuerxKcKSPSPm+vbXtxxqjW1pJLGR3i7CgOcE715EDrnpj11B6Bqj6ZbR2t9ZXEXdAgyohmgfzid+9M4znPMV56ZqMWpajaJCWliiaSafzWCKypiPJYDJD8wK8kuE2z4huUdQ3v7f6yx9Rchzq+tarFcpZLFayTvH3n4NpAqJnG5y6jAyDyBJq4aLBKkSrcMrS5YsVztyWJwu7ngDA5+isLtAsJIZYtWt1LtCrR3CAZL2xOSR+ch874+ioTUuM0ZUFqyzyzFUhijbmxPiw6qo8Sam4twyTnGrHrST+V5MVz+WyV4q1Yogji5yyHbGPzufP9FRlj7PXULHCtvdaUAfNSdo9x6lnhZRn9JvtNSlr2cTMRcTX8qXRBDd2sZhRTz7uNXXIA9OcmpKw4A2zxTXN5NP3L95GhWONN4BAZti5bGeVdHA4RPGcNNaXV/dmkrEy54rmua8bqcRo0jclVSx9gGTXfIj5b7ZNR7/AFe4weUZWJf1AAf3t1bU4bs+5tYIvFY1z7SMn7Sa0tpelXWo3Ms0EJlbvDLINyqPOctjLHx51syPXdUaZrZdMBlRFdlEq+apOASc4546ZzVjFyKoTcW+vj5KWbRZbFKJYOz2HvtXvrk9II4rdT62O5sewr9tVD/EfqW66t7YHlHEzkfnO2PuQfGsvhvjR9GZ7W6s5Hu7mYzuqug2mQ7VTx9G7r+PVW7UdKv57ibUri1aGImNQDJG+0ABAPNbnkjwHjVe26PP7n1fYtVw5YJeC29lll3dgrHrI7v7vmj/AG/bUhdsJNSgjz/kwSy49bkRj7AfjUDwlquovaReS6eskSrsV+9Vd23kTgkeOaw7rR9ba98uS02NhV2d5GV2gYKnzuYPWrL4ljQioOa2u/VHP9HbKyU2u/Y2Lcxb0ZMldysMjqMgjI9YrW7dk+Tnys/Vf31ZPL9YAydLX14lT7s1WJe1KZXMbWYDg7SpZgwbpgjHXNTesxL+0k9eCKvGyqv0nf8A5Tf+rP1X99bC0qyEEMcKnIRFXOMZwOuPWedQtre6vIocaagB6BplRvep5j317d9q/wBHxfXp/OoI8TwK29WLf5NrMXLsWpdjpw84kur6YHOJI4R6hGvP94n4Vm8S6MLy3aBnKZKkMBnBBzzHiK1skupaRPmaJSbos3d5D72z1Gw5DZbHr9dXaLUNXYAjSxg+mVVPvBORUkeI4v0/fJaf37izCuVilD4PG94b1CaNoZdWmeNhtZSmQR6D5/OvDhTgFbKcTmbvCFYAbNuCeWc7j4Z+NZ/lusfRa/XJ/OsW513VI5Ion00B5iyxqJVJYqNxxg+A5861ry8Fy9kk3+TadeY1p/wSPHNxsspQORk2xj9dgp+zdU3DCEVY16KAo9QAx/CqHxXpGtXsSxHTWjCuHyJEOSAQOres1L6dJraRhZtLaRgANwlRCceJGTz9mKsrKhztkTwrPppLuc3fD10t1Ld2N6bdpQokGwN80AcifDlUfrvCmoXqLHd6l3qK24KY8ANjGfNxnkT8amPKtX+h3+vjp5Vq/wBDv9fHWjeM3slisuK0v4OOD+FksI2UMXdyC7EY6dAB4DmfjXHELh7qyts9ZWmYeqNSRkejcfsNd1k1l/NTSthPRpJ49g9ZAwTVQ1ngrXYrxbsxd9ICCrxMrIPzNpwQMZGMVmWRXGKjExXiWym52dzZtU/TeG9QtFaOy1IxRF2fb3YJyfEk554A+FZUWpavgbtHkJ8cSBRn1Ag4+Neg1DVvoeT61f5VvZdRZ+ojqoyat8pBa1wJd3kglvL/AL1gu0EpzC5JwACB1Jq4aHpKWsCQR5Kr4nqxPMk+/wDhUcL3VvoeT65P5VWOL+N761PcS2YtpWXcCziVtpJG4Acgcg9fR0rWFlFfWJtZTlW9J9iz2zCXUpWzkQQpH6g8h3n34AFZvEumNdW0lurhC+AWIzgAgnl7qgeyyBhZtM5JaaV3JOcnHm/eGqS1vXZop47W1tWuZXRpNqttKqDjPQ8uvoqZSj9Pml8kEoSd3LDujDTSNVEItxqmIggjCiJRhANu0EDPTlnNR/DHZyttMs8s3eFDlVC7Ru8CSTzxUv8AKWq/Q0v1g/poNS1b6Hl+tUf/ABqunjJ7RaksuS0/4JPiK/EFrNMTjbG2P0iMKPaWIqydk+lm30q2RhhnUyt6cuSwz69pUe6q1pnBF5fSJLq4SK3QhltUbcXYf+a4OMeoH4VtRVxyHSoMm5WS6fBZxMd1Q692dq4xXNKrFs60CjwrtXGKA4IqPstCtoXaWG3hjdvnMkaKx9pAzUjTFYAxXNKVkCqh2r6l5PpV04OC0fdj2yEJ9xPwq3ZrUH+I7Uttrb2wPOSVnPsRcfe4+FAYXYPp+y0mnPWSUKPYg/mxq59noElzqN2ejXAgT9GBNvL1bmb4Vjdn1kLbTbZWwv4PvGJ5Ab/Pyc9MA/ZUdJw1orEse4ySST5QeZPMnlJXj6eIRrzrrZRb+Fpb7Fhw3FIols/yhxM8nzkSdyPEbYRhfiUHxqw9vOobbWGAdZZSx9iLj73Hwq28OcPafA7S2KRb8bWZHMmAeeD5xxnH2VrftUPler21mOeBEh9Rdtx/dI+FTV5azOIRmk1GEW3sxy8sPybE4cQWOkxsw/yrbvGHTmVMhHtycVCa1xXqdpZpfzW1oInEZVRJJ3nnjIG3GM45nn6ame0TJs/Jk5G4lgtlx6HcZx+qDVa/xF3oSGzs05As0hA8AihF/wBzfCtuE4VWVGd90duUnoxZJx0kW7gfX2v7RLl4xGWZhgEkHacZGefp+BrWvDFut5xFPNtBSJ5ZPVlfwan27sNWw9CQWOkxk8u6tu8b9LaZD9pqmdg1kSt1dN1ZljB/eb71qlRy0V5VtfRfpX7s3fVxTL3rOq3HlEVnZRxPM6PKxlZljSNSFydoySWOBivC7+WYo3ldNO2ojO3nz9FG4/i+iumv6TplxLvu3iMqqE5zlGABzggOMczVK4+4fsFtwmnKJLmSRURY52lbGCT5u8g8hj31NwyGHOEK51NyfdtdP+zWfN32e/Z7rEmq6i15PGi+TQbEC5IVmY8+eTnBervrerXC3MVnZRxSTPG8rd67IiopC8yoJyScVrrsQ1e2gS4hnkSKVnUjeQgZQCMZblkEnl66vmtWel3biS5kt3ZRtDd+FOM5x5rjIzmo8yEYZ/8AyVt1xWkkv9+TMX7ej6nvs1r8nsPrpf6a9NF0O/kv4ru/S3RIIpVjELu5LyYGTuAx5oIqPi4C011DRRnn8145pcj1qwfHKp3s1v5ZbaRJnMjQXE0Akb50ioRhm9J54z44rrcMlg2zcqIalHvs0nzJdS30pSu6RHGKYrmlAcUxXNKAVxiuaUBxXyr2zal3+rXGDyjKxD9RRn94tX1XUVNw5Zuxd7S3ZmJJYxRkknnkkjJNAal4d4gsYLWCE3UQKxqCM9GPM/aTUt2Zut1qt5eIQ0cUMUMbDodx3HHvU/Gtgjhay/I7b6mP+ms2x02GAEQRRxgnJCIqAn0naBk1PO+U48pWrxowm5ruzLrjFc0qAsnGK5pSgFKUoBSlKAUpSgFKUoDivnjtunN1rEFon4ixR4/PkbcfsKfCvofFaV1Ds91NtWfU1W3cd8XjV5WHmjzUzheRACn3VpPfK+XuCydoDFNPeCLk0pitox/7jBMD9XNRva5oNhZaU7RWlusrGONHEaBwSQSd2M52q3OpUaHqVzc2pvIraOCCbvm7uV3ZmVTtGCoGNxBp2w8JXepxQQ2nd7Ud3fexXngBcYBz1f41zeE4c8alqz9TbbN7Jcz6EF2Iaf3en94RzmlY/qrhR9ob41VuE/8A+ziKa46rG0zg+pR3afetXnRNG1i2tY7WO3s8RptDGZ8k8/OI2dckmoPgjgHVtOeWRYrSRpAF86ZhgA55YTx/hVVYF/PkWa90+kevwbcy6IsnFqXHlNlLDbNcRwSSSuquiEvs2pzc+BJNU7jDh7UNX1CKaW1NvAqonnyRttUMWY+aeZOTgAeAq97da/JbL6+T+iudutfktl9fJ/RUGLVxPHoVMYR6fO/7MycG9kT2u3/c6ZKo5GQpEvsJyce5T8a79lNkINLhLct++ZvYTyJ/VAqD437P9a1BozI9rtUEiNHdUQk+llyzYxz9wqebSNZ8k8kS3s1Hc9yGE8mVGzZuxsxnHP21h8IvWJGha25bkPqLm2ZPZ5w1a3Vn5Xd20MslxLPNukjV22tIQoywzjaAceuvLjbVtN0R4JF0+EyvvKGJI43QKAM5xnnuxV70LTxb20NuP+lFGnt2qBn7K1l2s8AX+pXccsHc9zHGqgO5UltxLHAU+kD3V6WMVFaRCZUmpLcYnbh1ZO8AbextSzA8wTu55wfGqrx3oE95HHHZaMtqVcs7KbcMwxgL5hHLqT7qvkcOsqAotLIAAAfh5PDl/ortt1r8lsvr5P6a487eJ7eq46/P9kiUPJzoVr8n6ciSYzBCzP0xuALtg+PMn7Kk+zGyMWmW2758imZvSTKxk5+5gPdUQ/DOoX2I9QaCC2yDJFAzvJMAc7GdgAiZ645mr/HGFAVRgAAADoAPCtuFYNlHPZb+qb2xOSfRHelKV2CMUpSgFKUoBSlKAUpSgFKUoBSlKAUpSgFKUoBSlKAUpSgFKUoBSlKAUpSgFKUoBSlKAUpSgFKUoBSlKAUpSgFKUoBSlKAUpSgFKUoBSlKAUpSgFKUoBSlKAUpSgFKUoBSlKAUpSgFKUoBSlKAUpSgFKUoBSlKAUpSgFKUoBSlKAUpSgFKUoBSlKAUpSgFKUoBSlKAUpSgFKUoD/9k=;" parent="1" vertex="1">
          <mxGeometry x="640" y="80" width="339.07" height="160" as="geometry" />
        </mxCell>
        <mxCell id="Sn0ZS7JDet4PQSGlTSbJ-8" value="" style="shape=image;imageAspect=0;aspect=fixed;verticalLabelPosition=bottom;verticalAlign=top;image=data:image/webp,UklGRg4aAABXRUJQVlA4IAIaAAAwdACdASoAAgABPpFIn0ulpCKho9ZouLASCWNu4XasCXiyr1+i816sf4D+0/rzhH6a8v7nD/g/ch8wf+B6of7b+13uH/1n+//rN1q/Md+2Xqr/839lvdx+035HfIB/H/7p1sXoEfzH/Qem/+43wuf2v/m/tZ7Xf//1hjzb/U+1P+zeKviA8//rX92/4/Lk6z8y/5B9d/wf9j9Ev994M/JfUF/Hf5V/rN7vAH9Rf9R/fPyi9GH/d/rXqR9cP9T7gH8u/qH+2/tnt3/o/+B4vv3v/VewF/Jv65/yv8V67//n/mvP79L/+X/OfAl/Pv7X/3P8F/mO39+4///9z39uhTXja8bXja8bXja8bXja8bXja8bXja8bXja8bXja8bXja8bXja8bXja8bXja8bXja8bXja8bXja8bXja8bXja8ZgbvE16bgaZtrxteNrxteNrxtbIHN4oe/T2G+8EaFf4O6fmC+a4ZLlbVjvxfC2mKlleN0L3Be4L3BeMMRHnCsBB2w5bitUKPggIjlBBfzboVboBOMFCgKHDCAv0sAMIAYKp6EhanwondSILn8Y38mEu7M8etEFKs8G1mlVtTMADiW9auDGskMlgiZ1c4Sbfz++4L3BVKvX3xrvjJcc6+arrr0Phu255BKRdY2W2csbp8KgQ1q+Mcou78IfnH3MbceJOwyzEb149LL7sG8cQ10iI2Th1W12Aupr6dni+wNCiD82B964kjRXIwCU06tfqXtWX3dUE6GC/4Z73suny4aL/NUtiLnjAQ9Xl5eMQD0MpCMKR/4pxxhv6vUiEXwMUmHy1O6S+X7ZQJcBiirkY4DyoKCZyDU+5VcgUEljR7wIj8IUunjQtqpVd19OMtGk+AYaefu3mvbmBOdkQ/Pi2R9bO5xa6ajN95fY2umKs8WsqPbw9AvY8RwS8t/9Utvchkq5n33Be4L3sbcBwXX3bsUVbhIQMrlWQuq61twRJdfUGEHDgnJ6w6qTvs+aLcmmJ6fuqQ7P9loHfhFtJoe0JJ1UvrP1Z+rP1Z+rLIKXv4Y8fcPlk3QGctdT+dS+6uTzROFm5sLKcFTooOvolugwsE8mornbE6xlRVyjzPkpJc/Vn6s/Vn6suxoAymbH9V3lQQVkhefAfQ6Cb32tcegA0jnXa+yCUMuIVBSaehmEMwhmEMwhmFw5BbbeGD9Wfqz9Wfqz9Wfqz9Wfqz9Wfqz9Wfqz9Wfqz9Wfqz9Wfqz9Wfqz9Wfqz9Wfqz9Wfqz3AAD+/8c6AAAAAAA5/7jMKnR+yGyxIr6+myUmLqPXRT46k/eElC48zw3pZqn6jh0NgrMx+v4ax8JZw4DT6WZ+jdnGEMIzO4SdEkAYKrlPbfyVC/C56PmlH0x+BTr01vDf6PRa1GFKh8NrzQnOoyZFc7xB+ovSfjtMmjvSyBJM2sx253Af2VSxNiyNSgyiqE6EqrwxhRWSS5AzJOwvbQ0AKFW63Uhi6YcHbIn4o9c5JAs1TGE0JWnbKPX2mTUYudt95Tf2qnR50vkvxiPFcIVtIo0ubW3pXtjyEeknU6z/3drxsessZukuvrZj8MAQ7rPUeWm1F5NIEaViO2OKvrW5DpHsZKymQX7GITthPFK0ZF62C5r3anNpgetIIY8axCPfkSD1utw0eFrrGEjIDvnSVfQdlGhzAPtYpVD3pszVFmy1l7qqnYtZsWCXeMpdZWNIpE4LNwt3cMTnavNdgT+qpYykgd5ekfJVLtcgEY1JmFNEa7hz4LJrDvlDLn/5mEwXoSyXW7trqxFYqIdvod+9yPwoc4octaP4AfGmHfADLGGkw2sQdKBh0vF/0pYuzG6XgxWcEpURLWw3m+aH7URvWNRAPPn2PJ85UliFrERjBdgiWwHsxfQ3u9VyA/Oin+mOE+DAjQc8u16FwJOo95GKsGhuz5VmRBLb+3qxZ3HTEaP5UFaUbFuJwTGCDe3n689/lz3cUxH3kNpcIlqS4UfD9KfxVXjKTzuS/Nei5FZPuy7L5RfWqnS9VhTT97pNhro3owDer/IjuRm5l2RiS2HUA6Km9N1K+wo5F87yJjIqYhf7WY4IvGesYQFUj0bpSYuFovACzx+5JjuGD4vCSxSGef8svYrmmHyaPFE8hisz3M2ooY6WKxCWXXRemvYG7NEKZ0I5v/KplBP1F6eZS7NCg4RNNDMvsmTZcPfgGxYm0dzX8SVtnkwZOL8afc9iw/stnDCzL7hWk7vmmEP9qTSVhR42ILajxxT3oxp3rXMkZFtlBjFc9lmrMAN+BRmYjUsg29C+0zE/3Y6UkX/xs7/ZFQhGg4tJS4gETlE9lcUVKBi8S0z20yYhnMGWkbGE4Hno7qhGH58EN4lzWS7v/EBMNswzE/6MQ5WKJNUiJz3Nx9aosSiBVyz2UZvyiweiMr6z6yXpZVrn2DV9OhNLnmqHjkbG7nvFnNH94LHxuf1ZKTf9hyglYyhRc2Zr9vuVy19CfQgFELCxe3VyBawEDfelQniVfYTBklI4VD7eMQdl6V8H5dduc7sgXafGc+Vl4RMev26lxmWFiqx+0qr4Yir41aGu1NLDnbZS646kMSh/BFI/zX0outeDDTagTTxzbrwKU/8aOdsvV7kWdEUKE7yy+Qi709m/SdkV/3rSx0c/mDUSIaaQouSytfwg/9WDBj+bH7i7qUmBp9JHUJEG4f9n1U88y8bS2CDjTRSjr1Vz1KpKOxj8zJmhmuQD8d9wkx5OSlJ7q6DIhzADBOVZ2EL/zD3fkLvL5wPYsNEbyseJ4IWTOyfgr09ykyai1FhN8Ei87wFUiMaQHQ2xljuKyvq5L31juG5DDfXiI6Zq0SG/UfsUyZFeu0VcGR2W+t118QbsFB9tbT2uGjJihHLiF7qq/59scTb45DiSogb1pEsOWbo1ylsKwiZ6Cy7BzfBhthrTaUf+78zHM2MyEa22QRQgItVhM8KcbH8fj5Cvx26ytNjISSHGBWNWBbTaMzK/z8IUx4h/ReJQ0nIMeq98zmvVKUGPjSW+YMFeJEXauK2XbGLPq18mORRDEhetMD5uyNr/9MjP3XoG0B9EFGAe7PkBd3qPhdZuwNwfEgU9kIV8GWg8JG/2CZy6zSctWPS4n9GX/Hswst/6kFzEkT0FLwlXTBnhuJCPtk5dRyiClgUhO4bSl8wFYAs/JtKMdfU4Y4kD9nJoPLRhVIOx9PbjKLrqKCvpm18jSpvVxxMfw3JmADvqkP2tYmdz2Bsbgn1JZGXbOXSUwCYosA28RzJyRTrQGiM5ZL+B7Vf4gchPT4LH0Cky0AI/gnelJsvG6lopi7UcZF7BoGbiUi5Vtkwk06vyyuTZ1PP4ifS3EXLpjUv4TczSPhgTApHCVn4dEgycVNC/nEnNiQnO5R2ILbibofrd/jJPQt/Yc7LdHwoadXzOMGUEpT/7+pUXfr7Lwtd2ptL9nQ7Mv0cwZB6uZWzz3vTfzcL+nwmx5bWqtHZlgvb/j/Eqzp4GxZ9J9dnlVCAJlJ26+fEw0W4QPc8ZaFhQef68r9ArtCSCrHhXBeJY35n7eNSnaOj0y4+jIzlsCRBumPOwN6ZZALdsRwcjp+38zOQD1Wz33ZGHZH0kx7v+hwD37P5ZyuVC8o3rlDcdiGWHj+fzGKLTmTkHURME6Q21hRtoZKzeaYGiJCfk1bhbYhJJfF4HmwHND1yIcxqDN+I30ix0jDiF3B9bEyrLNOU+sfrPHq1rA3q48umzeR9geagWT6waWoUkE5pK4JOMPLnva9YycLpWKHTFspkJXNBKRIoxZHmlu2ZTmzYvp4aMAkZI/WeRY1dlded7/OpI4vzGVYKfhef6m6C1qVeiDUUUtY7EPNpPcCABBqjROrU9f9spM3O9DrVsIs4LssttvUK2WbrLGlDz0cdsgKxiYk4jDQ44nCRhj+uutW4OsoEoSSBGoEzrixE7dXdqsUblYgMuskoHwXjrrWgB9vS0uOJ8SXUallgXi0SHioZyedL6e/H8+fcU+28uKo00a5gdowyRl7YlzttHmfcmViFu9XFkw7GxemHcfcKs70NPiIUyneWuNVxIHbH8G28z8Y2MQgR1ERxsmIn0DW5FT/moGoAk/m+u4glhLO2X/dKJkG5T4PaRPWkjnhuiOokAEz0NIRYFMYhuTOG3GlRFqejqji+xuwKQfJuVw1kh1jyuo9p8cKT307qtKXJ3lhEXsWwTurc2XfaR97ciMhpvTj5sla5Zx4eaanpj3vDGpGyzzpmEJNiCMY5Y984ZDcVPwnwSonpICVi9HtMAkb78ZGqA2VklOwe9Y3aYMYQFZLNLpT6ZkWk7Mth8UiANG891Xn1rU5qgIcF8NHN39UtbMEVUgiTvb17st3VcgFOMzuJOpL9vBnxIo94tXg0PpoxtT+l6CTaVF0yfCilP8Uhftzfwgckg3du37kzlaWtpKSSdsE6NelteenaIJDLBpsB68pIwk6lFECOe4Z84Lv5NkB6zapchUhU1hEEDu7hlt+itSf4/HIO71PWu53HGo6m2YBToQB4T9WeaexWflJuRzWqtSVVVl1YOBjbzBsZqKJRG05iTufaqHmXFzNWgghD3wRw+T6NAP5rM8ChReplpSm3yna6RVLv4QgzFkM+rdB4vh/bBxVr7K8navCZN+fk37Oz39f598XqEGxp3cJ2jnaqFBZHWIr2Sme4nuQiOOWZnSfhb2WCJxS6949mSYmeM9oI828fW2kr5XDdHJlEABo0/osVzRP0rjA9A6kdNm8VJPhBelEs3bZbI8UnYkxn0DrtAq2BP1AvUJd6A8AIhLTYg/IwoW79Ua00HPBjobSAvvzamseonO0n6LfIMOTnnsTcg6vilr+jIwsOQVRRaIwQUyx9G+bk8w2CD08kTCBdrCMbeSq0qNUGzo052uDJw41BLZ7mOX/TE4sPT8ZDQzdwsaQWvLL6sIcW4h+lqwp/Re52ZCi1JJ2817D4gACnmjKmGVaYkF0emfLQQaTR9eoFCxepr1rIUHC5BQWEZ47peEJOOqUt+wtmDUcoG9sEbwlD6waf2fy4rVU6AiTznnJMO3lV3+6FUasWY99WrDKjJM1/nTtTr4xpOaVE3e+0e0fRCcpXA8ExZKe5yzyTuNxGekCl3yKqERasEx5tVXJlM414jvH/HbeBccVxxglXHrcUO8NyYDUWDxrxstWG3kYwITJohDZbHVUHtUk7GUAqmigCKvWEb1Clb297ouExKmCwn1r1UmtbDfKcDJLXmMzd1UtItflC+jZphHDA/acenNpzue0U2xJpxyJhJvmsj4TInuQlruiMYvZWib+MYIWbXbp0y5Kff8zGSjY/aXeNllem/eqSCwsecqtbyybkZKJLEzlO97pfMChshSNBUTp6oKkDGu0iJS5NYzrMKzpYDQB3ylM7MKta3eT72VI4FasNCd9MNbpRNHg5DjmMPDUCHXwJU9VXp2oiCY5NFZw1nH1PuOFurl0DsnV0LkUmPWp6iGxzHddhQHTQXo3kaen+LLdwPivSR8HL7d2tE++QrMZ4m8Z2ecmQycj1+6eq0ZWz8OL2PxZ2x6HZDDgJRgb7eYbFhbuMx/B/gKQLrXF19N+tpQgJohREBCkEtqWgkDdP2H5Qv/EauqP3XU6Ok1TaMyBU0jqYZPBiamlsL9DtsI4tBCNcSQ1i9by+x3cVKvjqSjl2aJR90A8NzALWGTtZ1rvNGQKmm4jGQZKSZ+B5mh4h7LJNFe8IGnMhUNKMq7Ei7jdAw7Z/EXHuDKU8UctoN79LNBxzZ0wYYsi741ULXLNO2MqotZPthsGRi+Ou0bu+pd1n0FVNVkKjkzN7/Y13KHkpTg1BXJl69HKwOnzRtV7Q5cKj/nEAFRJScZH8iFsWrGziKoc+gydZbgfA3QnoIj1lxpaF5wtE8SDw4Ca5YtC7w9+lma/TFwBzYemAXaw+iiWROJwo4U++4eN39sJi5u99xxVYhdi00m/HGyISHBEbMdfBwFUHu2yq01gdpZsPsaUzkXZG9tqAIHuKIgYXHRtPPPl9i2H3f3LZRVroY+6eDpbfuOe5vajXkWMciV2wvzERvI7vQaVcGBgKT+3AZjQA0S1cQWEXMit/Cs/8lb7I2sMaykcPG0JMLppRGDJa85tXWzeIoVsapd6iRn1ukW1cMYrKlqsdvAV4N2woCboob3RKrkksmJkT9pryx2S7iTryIYJufHgEWzWyPlnFbALBk6G7x6MCF/DMZuPBbV1jcXcVTbDInqtBiljMlR3OgM8WWL/neyxOb1qjX2uEbvYcmPNMV7LrvtYAWhXHE4X3eiM7Zpldi5fr3CFT9pz/55a+xDQGfwlX9Gj35HcsEqCZYlWR6FgcKBYyQdMPs8ipktr7eDIUDofmZlEU3IVb43CriJaMJPW9NioV4kMrCFK/kgLi96HPmY+ZedQJNyGVtIKW/i+zGh6zFHq/2TgrL6hjuBGiVrs/CIxq2qgcoyUmIrFZJK8KrOtY9w1VgM2FELG/GTWq7UST5SDwq7/Mi/JiL84YhmTnNoD7sniLz1ZoF34dCGyfmZ9Wp9GGTFaI5UFNPVSZvBIg+RU5sBll1SIkTdcKOr0aSFEVJJH/ACr0QR7Fa6viMViey2L5lK0KceFZlCwqavNqKju6uotqwDrATkaUvKcCVMno9BmqopUgF0Np3DPI/A1b4uPZneBIUuBtb/3SUSYSCtAgLO6HSSCDMRmaCGbGd96IMF5yd7Lmv01Yvdm76Yy3UAktPCE5rabtCTvkNuPmMAAABhOb253Msjf/s3SmTsNd90o4uSXycJL9+fk2KdeRpcv/wzb6nw0NMvfTY5UqY1qWUASdNnVU82/KOfnc/9XCGwAxUYKby69ekW7MFFCe78499Al9rkGA2SSAgVrpqzcqwEVdxSX13K8awbaIJzuqa6tPuhoi2M/nDEuPHijCMZuZj30aOdisC8YrtaQ+vOx0sjXVd+OYa1T1u0gy9qu357J7shG0ytjoB6zLuOl0yH2YVaZelbTT6OmQyzmhbweV3i5i+zVUnzpM1SOcqWUv95TITqW0102d18vfj4SV1AXnC5Fn3oFeqWzxCe2fHDacbQbdrBNc99U4tneksI5b3lOJfky6ZTaOj0jKtQ1hqLsNMofOEFfNFpYsG5E2T9OrXGviR70V1Ahwc+G9LVlUCGB63PV2QqrtB1buZDqvjQgrYWfNlzS8nmjjRKIWvcTBjsvpxEQlUPgYRvppsYRcQGncxCspUk75aag+q1uMT2Xin6Fhl07aFkpZI4jRmIxgLp1ghpKmfZX8euKAJPm0cRCiJuLU0AKC2YPoMAnVS/UY/1s/EFtbPV2QYiy64SMH0ky4yOvn+IUISmqNnF6egInlXvFN00f8bm3Ma2YN7iN8G4q4pJXICF12HPCzDV7dqfHHfJvFcYPDd8O8JVg02q2pAFa0Cu5rOrGoOqzh7NgSjtXiRJ/vt/siKcs0D4Y3ZQwW4QG4I4aboWJTBEElSSjwTsvDLiC9FrtAvMztkICDmwD0XX4JJQIeZ9daFr9IWBjlAx6DSi4LEfPDtk6yHKzOwqBvEASfilou0zmKG3uIWEs5KEcW5xl+FdEdNJtLdUa5BWZ5Bj/E15hw7oDaDDxOXYrH38pkrbCi5i6qxhA8Ighq40cRq6tlUCWl9GF4OwsQ0W5r5beSv5CVMxcdxETdGWIonBODZirJU6EPKsNQabwahu4NQ+ICjw2hbppMQAABSzUMgpl8x8fXQTpyeLzZSbcVc72v09K2bL3sFLZD0pNZRXSjJplrqbR0LCyGYFstZvJay4x37JIWUaeDVusQDr3MfzzZ7sYYuw+2nRxkkvSiFWsaBJHE6XeQ3rL5Nobt/D7WA6QLeZdTUcfiwmynIw0Bk2G/AWw1+AHX1AjJPfokmAGxO95uUfDqQLwFSzyDZlukqIrPHGWKv3HzCiOWsYoDeHXdc8TFIBnhTRhJ1X+O8083tBBgqyro7Iaph2XikBtma9iueaQVTvliz64PX3Llfxhm4qWl/mfx5oPCM91AI0otTmFVf8njsy6VffhubHTaG7Ye4xFng35ztvDN2nf6dtQAGQcXX2KK6/gy0+H3p9BkWo4PdkGFqCw6cHpP+oOMonkLZ77BKPtdqjuxZxK0q1UU6aMqalyCMSmsf0SDZ8PbLoljOXbbpRz2U0LBtHwX7p64xPVm0Q+ec7TQgjlFtLrbDC9PxJdqwkHlDiDZtT1yhnmSVuM1dDgqJI/OkbKJt/l15ZLUJR9GV4yvNHKQ4JffE+DR5YXJG18wqKFTlOsLBVDfiVQqEyZ0Q5QznB7++/1xAHPaSgBBV3XIlONUbNh6lYAGS6i73P+3qBjEYKbjVxwJ1qe43ePE42R0QvmF34gsv3cr/XXAvSW+zR05pmEZ+CLZEzdBDTrYONiTeayVh8n8VrXFn6fHTlxXV96AUsaCt8vLIzW0Nn4AAR7rycZbnn7pH7cxR0A2cdPiNq/8UZ8MXBuxh+Q18t5b+OA1Fr5sCqYqdyz8O/YpA2XiAeR/H8qmQ/dZFPZbOe73WLWaITb/GhTdGhJOR9fQJJZK7vAc+HflAFiLOtGKVGjTWJZcJ0HvWRbmPrcsiFMkq4RvJUzJ6+Gk3ThOi60Yazx8p6k8En9wlxCRgBy72L9TexhCHCkpQtKjgLmjEE1LX9pAroea2SuJptoCJ1K8ysOxur5HduG0cBwE7C+uXVu8lKfJ2tvXBT8VqABsCp0OVUzlgVtXxWNZxDCGlfdQqHw9BOvJyRuy0AiC9feSzTTOfVBrWfMAr6siRj3csUa+mHD1Y4LTia/W2Np3ETRksTFlz20EjMlXlxPf3k2bOgjyvo32GhV+Cmd+KO5hACgQ/6g1k/tXZpinKUti3EFCkwkwXrRypniAAAAAAAAAA;" parent="1" vertex="1">
          <mxGeometry x="649.5300000000001" y="490" width="320" height="160" as="geometry" />
        </mxCell>
        <mxCell id="Sn0ZS7JDet4PQSGlTSbJ-12" value="" style="shape=image;verticalLabelPosition=bottom;labelBackgroundColor=default;verticalAlign=top;aspect=fixed;imageAspect=0;image=https://upload.wikimedia.org/wikipedia/commons/thumb/f/f3/Apache_Spark_logo.svg/250px-Apache_Spark_logo.svg.png;" parent="1" vertex="1">
          <mxGeometry x="722.99" y="330" width="173.08" height="90" as="geometry" />
        </mxCell>
        <mxCell id="Sn0ZS7JDet4PQSGlTSbJ-13" value="" style="shape=image;verticalLabelPosition=bottom;labelBackgroundColor=default;verticalAlign=top;aspect=fixed;imageAspect=0;image=https://seeklogo.com/images/T/trino-logo-3CA1C34BDB-seeklogo.com.png;" parent="1" vertex="1">
          <mxGeometry x="1450" y="100" width="169.02" height="80" as="geometry" />
        </mxCell>
        <mxCell id="Sn0ZS7JDet4PQSGlTSbJ-17" value="" style="shape=image;verticalLabelPosition=bottom;labelBackgroundColor=default;verticalAlign=top;aspect=fixed;imageAspect=0;image=https://static.wixstatic.com/media/ae4ba7_43593cea7dc54c718805a4e127914bf9~mv2.png/v1/fill/w_640,h_320,al_c,lg_1,q_85,enc_auto/ae4ba7_43593cea7dc54c718805a4e127914bf9~mv2.png;" parent="1" vertex="1">
          <mxGeometry x="1090" y="100" width="240" height="120" as="geometry" />
        </mxCell>
        <mxCell id="Sn0ZS7JDet4PQSGlTSbJ-19" value="" style="shape=image;verticalLabelPosition=bottom;labelBackgroundColor=default;verticalAlign=top;aspect=fixed;imageAspect=0;image=https://upload.wikimedia.org/wikipedia/commons/thumb/6/6f/Superset-logo.svg/1200px-Superset-logo.svg.png;" parent="1" vertex="1">
          <mxGeometry x="1380.67" y="280" width="307.69" height="80" as="geometry" />
        </mxCell>
        <mxCell id="Sn0ZS7JDet4PQSGlTSbJ-22" value="" style="endArrow=classic;html=1;rounded=0;strokeWidth=3;exitX=0.5;exitY=1;exitDx=0;exitDy=0;fillColor=#fff2cc;strokeColor=#d6b656;" parent="1" source="Sn0ZS7JDet4PQSGlTSbJ-3" edge="1">
          <mxGeometry width="50" height="50" relative="1" as="geometry">
            <mxPoint x="390" y="300" as="sourcePoint" />
            <mxPoint x="800" y="290" as="targetPoint" />
            <Array as="points">
              <mxPoint x="404" y="290" />
            </Array>
          </mxGeometry>
        </mxCell>
        <mxCell id="Sn0ZS7JDet4PQSGlTSbJ-23" value="" style="endArrow=classic;html=1;rounded=0;strokeWidth=3;" parent="1" edge="1">
          <mxGeometry width="50" height="50" relative="1" as="geometry">
            <mxPoint x="1534.01" y="180" as="sourcePoint" />
            <mxPoint x="1534.01" y="300" as="targetPoint" />
          </mxGeometry>
        </mxCell>
        <mxCell id="Sn0ZS7JDet4PQSGlTSbJ-25" value="" style="endArrow=classic;startArrow=classic;html=1;rounded=0;strokeWidth=3;" parent="1" edge="1">
          <mxGeometry width="50" height="50" relative="1" as="geometry">
            <mxPoint x="809.03" y="350" as="sourcePoint" />
            <mxPoint x="809.03" y="230" as="targetPoint" />
          </mxGeometry>
        </mxCell>
        <mxCell id="Sn0ZS7JDet4PQSGlTSbJ-26" value="" style="endArrow=classic;html=1;rounded=0;strokeWidth=3;exitX=0.5;exitY=0;exitDx=0;exitDy=0;fillColor=#fff2cc;strokeColor=#d6b656;" parent="1" source="Sn0ZS7JDet4PQSGlTSbJ-3" edge="1">
          <mxGeometry width="50" height="50" relative="1" as="geometry">
            <mxPoint x="414" y="30" as="sourcePoint" />
            <mxPoint x="1380" y="150" as="targetPoint" />
            <Array as="points">
              <mxPoint x="404" y="40" />
              <mxPoint x="1380" y="40" />
            </Array>
          </mxGeometry>
        </mxCell>
        <mxCell id="Sn0ZS7JDet4PQSGlTSbJ-27" value="" style="endArrow=classic;startArrow=classic;html=1;rounded=0;strokeWidth=3;" parent="1" edge="1">
          <mxGeometry width="50" height="50" relative="1" as="geometry">
            <mxPoint x="809.03" y="540" as="sourcePoint" />
            <mxPoint x="809.03" y="420" as="targetPoint" />
          </mxGeometry>
        </mxCell>
        <mxCell id="Sn0ZS7JDet4PQSGlTSbJ-28" value="" style="endArrow=classic;startArrow=classic;html=1;rounded=0;strokeWidth=3;" parent="1" edge="1">
          <mxGeometry width="50" height="50" relative="1" as="geometry">
            <mxPoint x="1110" y="159.5" as="sourcePoint" />
            <mxPoint x="989.9999999999999" y="159.5" as="targetPoint" />
          </mxGeometry>
        </mxCell>
        <mxCell id="Sn0ZS7JDet4PQSGlTSbJ-29" value="" style="endArrow=classic;startArrow=classic;html=1;rounded=0;strokeWidth=3;" parent="1" edge="1">
          <mxGeometry width="50" height="50" relative="1" as="geometry">
            <mxPoint x="1440" y="159.5" as="sourcePoint" />
            <mxPoint x="1320" y="159.5" as="targetPoint" />
          </mxGeometry>
        </mxCell>
        <mxCell id="ZXG5lsxfy-wzflTqVX6p-7" value="" style="shape=image;verticalLabelPosition=bottom;labelBackgroundColor=default;verticalAlign=top;aspect=fixed;imageAspect=0;image=https://www.southeastlinuxfest.org/wp-content/uploads/2016/04/postgresql-logo.png;" parent="1" vertex="1">
          <mxGeometry x="1070" y="200" width="108.93" height="50" as="geometry" />
        </mxCell>
        <mxCell id="yOo7rIPb99MVcSWgUbsJ-2" value="" style="shape=image;verticalLabelPosition=bottom;labelBackgroundColor=default;verticalAlign=top;aspect=fixed;imageAspect=0;image=https://www.southeastlinuxfest.org/wp-content/uploads/2016/04/postgresql-logo.png;" vertex="1" parent="1">
          <mxGeometry x="230" y="200" width="108.94" height="50" as="geometry" />
        </mxCell>
        <mxCell id="yOo7rIPb99MVcSWgUbsJ-3" value="" style="endArrow=classic;html=1;rounded=0;strokeWidth=3;" edge="1" parent="1">
          <mxGeometry width="50" height="50" relative="1" as="geometry">
            <mxPoint x="170" y="159.5" as="sourcePoint" />
            <mxPoint x="290" y="159.5" as="targetPoint" />
          </mxGeometry>
        </mxCell>
        <mxCell id="yOo7rIPb99MVcSWgUbsJ-4" value="" style="endArrow=classic;html=1;rounded=0;strokeWidth=3;" edge="1" parent="1">
          <mxGeometry width="50" height="50" relative="1" as="geometry">
            <mxPoint x="520" y="159.5" as="sourcePoint" />
            <mxPoint x="640" y="159.5" as="targetPoint" />
          </mxGeometry>
        </mxCell>
        <mxCell id="yOo7rIPb99MVcSWgUbsJ-5" value="" style="shape=image;verticalLabelPosition=bottom;labelBackgroundColor=default;verticalAlign=top;aspect=fixed;imageAspect=0;image=https://cdn.icon-icons.com/icons2/2699/PNG/512/kubernetes_logo_icon_168360.png;" vertex="1" parent="1">
          <mxGeometry x="649.53" y="-190" width="360" height="180" as="geometry" />
        </mxCell>
      </root>
    </mxGraphModel>
  </diagram>
</mxfile>
